<?xml version="1.0" encoding="UTF-8"?>
<svg width="602px" height="602px" viewBox="0 0 602 602" version="1.1" xmlns="http://www.w3.org/2000/svg" xmlns:xlink="http://www.w3.org/1999/xlink">
    <!-- Generator: Sketch 49.3 (51167) - http://www.bohemiancoding.com/sketch -->
    <title>Group 2</title>
    <desc>Created with Sketch.</desc>
    <defs></defs>
    <g id="Page-1" stroke="none" stroke-width="1" fill="none" fill-rule="evenodd">
        <g id="Full-HD-Desktop" transform="translate(-659.000000, -239.000000)">
            <g id="Group-2" transform="translate(561.000000, 141.000000)">
                <g id="yin-yang" transform="translate(399.000000, 399.000000) scale(-1, 1) rotate(25.000000) translate(-399.000000, -399.000000) translate(99.000000, 99.000000)" fill-rule="nonzero">
                    <path d="M450.165706,258.114844 L300.138997,0 C300.127274,0 300.127274,0 300.114379,0 C134.365662,0 0,134.314453 0,300 C0,465.685547 134.365662,600 300.114379,600 L300.114379,599.988281 C302.400406,599.988281 304.672366,599.928516 306.932602,599.827734 L306.956049,599.834766 L307.768468,599.794922 C307.807154,599.79375 307.845841,599.791406 307.883355,599.790234 L316.276007,599.383594 L322.314636,598.742578 L328.127008,597.911719 L337.245327,596.4 L367.56743,589.440234 L396.569499,577.985156 L427.008834,554.058984 L493,455.978906 L450.165706,258.114844 Z M289.992552,0.35859375 C293.181268,0.146484375 296.395774,0.028125 299.636071,0.01640625 L289.992552,0.35859375 Z" id="Shape" fill="#D23D33"></path>
                    <path d="M600,300 C600,465.685547 465.683798,600 299.996094,600 L299.996094,599.988281 C382.834672,599.988281 449.992187,532.830469 449.992187,449.994141 C449.992187,367.157812 382.834672,300 299.996094,300 C217.157515,300 150,232.842188 150,150.005859 C150,67.1695312 217.157515,0.01171875 299.996094,0.01171875 L300.020703,0 C465.695517,0.01171875 600,134.326172 600,300 Z" id="Shape" fill="#272933"></path>
                </g>
                <g id="Group" transform="translate(399.000000, 472.000000)">
                    <circle id="Oval-3" fill="#272933" cx="67.5" cy="67.5" r="67.5"></circle>
                    <path d="M53,60.7225253 L31.1074161,70.5 L52.8857279,80.2774747 L52.8857279,85 L24,72.1666264 L24,68.8333736 L53,56 L53,60.7225253 Z M59.9449782,90 L56,88.6375349 L73.0565237,46 L77,47.4760465 L59.9449782,90 Z M82,56 L110,68.8338167 L110,72.1671846 L82,85 L82,80.2773116 L103.11052,70.4994993 L82,60.721687 L82,56 Z" id="Shape" fill="#D80027" fill-rule="nonzero"></path>
                </g>
                <g id="layers" transform="translate(264.000000, 191.000000)" fill="#D80027" fill-rule="nonzero">
                    <path d="M67.4982,0 C30.2204015,0 0,30.22245 0,67.49865 C0,104.77485 30.2204015,135 67.4982,135 C104.775999,135 135,104.77665 135,67.49865 C135,30.22065 104.777349,0 67.4982,0 Z M105.638654,90.80505 L69.0552104,108.936 C68.5651571,109.17855 68.0328036,109.3014 67.50045,109.3014 C66.9680965,109.3014 66.4348429,109.1799 65.9456896,108.93735 L29.3622457,90.8064 C27.6292842,89.94735 26.9205295,87.84675 27.7795852,86.11335 C28.6372909,84.38265 30.7406049,83.67165 32.4713165,84.5307 L67.50135,101.8917 L102.530034,84.53205 C104.259845,83.6721 106.362709,84.3813 107.221765,86.11335 C108.080371,87.84495 107.371616,89.946 105.638654,90.80505 Z M105.638654,77.481 L69.0552104,95.61195 C68.5651571,95.8545 68.0328036,95.97735 67.50045,95.97735 C66.9680965,95.97735 66.4348429,95.85585 65.9456896,95.6133 L29.3622457,77.48235 C27.6292842,76.6233 26.9205295,74.5227 27.7795852,72.7893 C28.6372909,71.05725 30.7406049,70.34985 32.4713165,71.20665 L67.50135,88.56765 L102.530034,71.208 C104.259845,70.34535 106.362709,71.05725 107.221765,72.7893 C108.080371,74.52135 107.371616,76.62195 105.638654,77.481 Z M105.638654,64.1574 L69.0552104,82.28835 C68.5651571,82.5309 68.0328036,82.65375 67.50045,82.65375 C66.9680965,82.65375 66.4348429,82.53225 65.9456896,82.2897 L29.3622457,64.1574 C27.6292842,63.29835 26.9205295,61.19775 27.7795852,59.4657 C28.6372909,57.73365 30.7406049,57.024 32.4713165,57.88305 L67.50135,75.24405 L102.530034,57.88305 C104.259845,57.02535 106.362709,57.7323 107.221765,59.4657 C108.080371,61.19775 107.371616,63.29835 105.638654,64.1574 Z M105.638654,50.1777 L69.0552104,68.30775 C68.5651571,68.5503 68.0328036,68.6718 67.50045,68.6718 C66.9680965,68.6718 66.4348429,68.5503 65.9456896,68.30775 L29.3622457,50.1777 C28.1706378,49.5873 27.4155328,48.37095 27.4155328,47.0403 C27.4155328,45.70965 28.1692878,44.49375 29.3622457,43.9029 L65.9470396,25.7706 C66.9262462,25.28505 68.0769038,25.28505 69.0561104,25.7706 L105.639554,43.9029 C106.831162,44.4933 107.586267,45.70965 107.586267,47.0403 C107.586267,48.37095 106.831612,49.58595 105.638654,50.1777 Z" id="Shape"></path>
                </g>
            </g>
        </g>
    </g>
</svg>